<svg viewBox="0 0 900 650" xmlns="http://www.w3.org/2000/svg"><rect width="900" height="650" fill="#15283a"/><g opacity=".18" stroke="#fff"><path d="M0 580H900M0 500H900M0 420H900M0 340H900"/><path d="M120 0V650M280 0V650M440 0V650M600 0V650M760 0V650"/></g><path d="M110 530V260H430V530M430 530V180H770V530" fill="#0a1420" stroke="#58758d" stroke-width="4"/><path d="M160 315H380M160 365H380M160 415H380M480 250H720M480 310H720M480 370H720M480 430H720" stroke="#4c6d86" stroke-width="12"/><path d="M95 540H790" stroke="#1d71b8" stroke-width="6"/><text x="110" y="110" font-family="Arial" font-size="24" font-weight="700" fill="#fff">GEWERBE- & GROSSPROJEKTE</text><text x="110" y="145" font-family="Arial" font-size="15" letter-spacing="3" fill="#9db0bf">RHEIN-MAIN / PROJEKTBEZOGEN</text></svg>
